<?xml version="1.0" encoding="UTF-8"?>
<svg xmlns="http://www.w3.org/2000/svg" 
     viewBox="-1205 -778 7972.3 2132.2162162162163" 
     width="7972.3" height="2132.2162162162163">
  <g transform="scale(1,-1) translate(0, -576.2162162162163)" 
     fill="#38A88A" fill-rule="evenodd">
    <path d="M929 299Q987 299 1037.5 272.5Q1088 246 1119.0 194.0Q1150 142 1150 71Q1150 48 1145 15Q1125 -104 1056.0 -178.5Q987 -253 879 -253Q792 -253 727.5 -210.5Q663 -168 620.5 -108.0Q578 -48 524 51Q481 129 451.5 174.5Q422 220 382.0 251.0Q342 282 292 283L282 165Q276 104 276 39Q276 -96 311 -140Q411 -140 422 -185Q425 -198 417.5 -211.0Q410 -224 393.5 -231.0Q377 -238 354 -235Q299 -229 249 -200Q144 -172 16.0 -157.0Q-112 -142 -244 -142Q-424 -142 -580.5 -171.5Q-737 -201 -845.0 -265.0Q-953 -329 -982 -426Q-992 -460 -992 -496Q-992 -548 -969.5 -591.5Q-947 -635 -904.5 -660.5Q-862 -686 -806 -686Q-754 -686 -706.0 -659.0Q-658 -632 -628.5 -589.0Q-599 -546 -599 -500Q-599 -435 -660 -388Q-643 -402 -634.0 -421.0Q-625 -440 -625 -460Q-625 -501 -655.5 -531.0Q-686 -561 -734 -561Q-780 -561 -810.0 -532.0Q-840 -503 -840 -460Q-840 -446 -835 -428Q-822 -382 -776.0 -353.5Q-730 -325 -665 -325Q-654 -325 -630 -327Q-568 -334 -518.5 -350.0Q-469 -366 -405 -393Q-347 -418 -306.0 -430.5Q-265 -443 -219 -443Q-144 -443 -111 -391H-108Q-80 -441 -80 -487Q-80 -545 -119.5 -583.0Q-159 -621 -216 -621Q-259 -621 -297.5 -604.0Q-336 -587 -367.5 -562.0Q-399 -537 -444 -495Q-497 -446 -534.0 -418.5Q-571 -391 -613 -378Q-582 -404 -566.0 -438.0Q-550 -472 -550 -508Q-550 -565 -585.5 -618.0Q-621 -671 -686.0 -704.5Q-751 -738 -835 -738Q-934 -738 -1009.0 -700.5Q-1084 -663 -1124.5 -598.5Q-1165 -534 -1165 -458Q-1165 -414 -1152 -372Q-1102 -213 -890.5 -138.0Q-679 -63 -385 -63Q-246 -63 -104.0 -79.5Q38 -96 164 -125Q86 -20 86 162Q86 200 89 242L114 535Q116 567 116 577Q116 605 109.0 619.5Q102 634 85 638L91 700Q104 701 131 701Q184 701 228 693Q281 702 330 701L314 535L296 330Q344 330 388.5 363.0Q433 396 464.5 451.0Q496 506 505 571Q509 598 509 630Q509 720 471.5 778.0Q434 836 370 836Q327 836 296.5 800.5Q266 765 261 723L253 718Q232 715 214 715Q164 715 134.5 734.0Q105 753 105 781Q105 794 112 807Q132 845 192.5 864.0Q253 883 326 883Q437 883 523.5 847.0Q610 811 658.5 749.0Q707 687 707 611Q707 601 705 583Q693 481 613.5 411.0Q534 341 415 307Q471 291 514.0 260.0Q557 229 587.0 194.0Q617 159 658 103Q699 47 728.5 13.5Q758 -20 799.0 -45.5Q840 -71 894 -78Q912 -80 920 -80Q985 -80 1032.0 -39.5Q1079 1 1090 74Q1092 92 1092 100Q1092 147 1068.0 181.5Q1044 216 1007.5 232.5Q971 249 937 246Q959 237 971.5 214.5Q984 192 984 164Q984 134 970.5 108.0Q957 82 931 68Q906 55 878 55Q839 55 808.0 78.0Q777 101 770 140Q768 149 768 165Q768 211 797.0 246.0Q826 281 877 293Q903 299 929 299Z" transform="translate(0, 0)"/>
    <path d="M691 165Q704 114 717.5 90.5Q731 67 756 62L749 0Q736 -1 707 -1Q647 -1 600 7Q560 -1 505 -1Q478 -1 464 0L470 62Q493 68 493 97Q493 115 481 165L473 194H232L219 165Q209 142 209 124Q209 94 229.5 82.0Q250 70 282 62L275 0Q261 -1 237 -1Q191 -1 151 7Q104 -1 66 -1Q43 -1 30 0L36 62Q73 69 104.0 90.0Q135 111 159 165L394 700Q442 700 466 693Q476 695 492.0 697.5Q508 700 520.0 701.0Q532 702 548 701ZM258 254H457L382 537L381 535Z" transform="translate(1185, 0)"/>
    <path d="M708 386Q708 376 706 352Q697 246 636.5 166.0Q576 86 479.5 42.5Q383 -1 269 -1Q220 -2 168 7Q124 -1 70 -1Q43 -1 30 0L35 62Q58 67 67.5 90.0Q77 113 82 165L114 535Q116 567 116 577Q116 605 109.0 619.5Q102 634 85 638L91 700Q104 701 131 701Q184 701 228 693Q281 702 330 701Q441 701 526.5 663.5Q612 626 660.0 555.0Q708 484 708 386ZM498 401Q498 472 479.5 528.0Q461 584 428.0 616.0Q395 648 353 648H325L314 535L282 165L273 54L299 56Q345 59 388.0 98.0Q431 137 460.0 203.5Q489 270 496 352Q498 386 498 401Z" transform="translate(1976, 0)"/>
    <path d="M619 212Q610 176 589.5 106.0Q569 36 557 0L269 -1Q220 -2 168 7Q124 -1 70 -1Q43 -1 30 0L35 62Q58 67 67.5 90.0Q77 113 82 165L114 535Q116 567 116 577Q116 605 109.0 619.5Q102 634 85 638L91 700Q104 701 131 701Q184 701 228 693Q281 702 330 701L618 700Q619 641 611 515H549Q542 556 520.0 598.0Q498 640 456 640H324L314 535L301 380H362Q400 380 422.0 397.0Q444 414 452.0 431.0Q460 448 470 480H531Q530 411 512 342Q514 310 514 295Q514 247 507 205L446 204Q445 210 441.5 242.0Q438 274 415.5 297.0Q393 320 352 320H295L282 165L274 60H405Q434 60 464.0 88.0Q494 116 512.0 142.0Q530 168 557 212Z" transform="translate(2739, 0)"/>
    <path d="M678 396Q705 396 718 395L713 333Q690 328 680.5 305.0Q671 282 666 230L653 89Q610 52 541.5 23.0Q473 -6 387 -6Q285 -6 208.5 37.5Q132 81 91.0 155.0Q50 229 50 319Q50 341 51 352Q60 449 112.0 529.5Q164 610 254.0 657.0Q344 704 461 704Q500 704 530.5 697.0Q561 690 615 671Q621 669 624 669Q639 669 657 690L710 680Q697 641 668.5 572.5Q640 504 623 467L565 483Q568 500 568 517Q568 571 540.5 609.5Q513 648 457 652Q374 652 323.5 568.5Q273 485 261 352Q258 324 258 295Q258 224 274.0 167.5Q290 111 320.5 78.5Q351 46 392 46Q424 46 451 65L466 230Q468 262 468 272Q468 300 461.0 314.5Q454 329 437 333L443 395Q456 396 483 396Q536 396 580 388Q624 396 678 396Z" transform="translate(3393, 0)"/>
    <path d="M691 165Q704 114 717.5 90.5Q731 67 756 62L749 0Q736 -1 707 -1Q647 -1 600 7Q560 -1 505 -1Q478 -1 464 0L470 62Q493 68 493 97Q493 115 481 165L473 194H232L219 165Q209 142 209 124Q209 94 229.5 82.0Q250 70 282 62L275 0Q261 -1 237 -1Q191 -1 151 7Q104 -1 66 -1Q43 -1 30 0L36 62Q73 69 104.0 90.0Q135 111 159 165L394 700Q442 700 466 693Q476 695 492.0 697.5Q508 700 520.0 701.0Q532 702 548 701ZM258 254H457L382 537L381 535Z" transform="translate(4146, 0)"/>
    <path d="M30 21Q43 60 71.5 128.5Q100 197 117 234L175 218Q173 202 173 194Q173 156 190.5 120.5Q208 85 242.0 62.5Q276 40 321 40Q372 40 403.5 67.0Q435 94 435 138Q435 168 414.5 193.5Q394 219 363.0 239.5Q332 260 278 290Q213 326 171.5 354.5Q130 383 101.5 422.5Q73 462 73 512Q73 571 114.5 616.5Q156 662 226.0 687.0Q296 712 377 712Q480 712 594 671Q600 669 603 669Q618 669 636 690L689 680Q676 641 647.5 572.5Q619 504 602 467L544 483Q546 497 546 505Q546 543 527.0 579.0Q508 615 472.5 638.0Q437 661 391 661Q338 661 306.0 637.5Q274 614 274 570Q274 540 296.0 513.0Q318 486 350.5 464.0Q383 442 439 410Q507 371 547.5 342.5Q588 314 617.0 275.5Q646 237 646 189Q646 131 602.0 85.0Q558 39 485.5 14.0Q413 -11 332 -11Q239 -11 125 30Q119 32 116 32Q101 32 83 11Z" transform="translate(4937, 0)"/>
    <path d="M1066 1109Q1061 1032 1012.5 971.0Q964 910 877.0 874.5Q790 839 675 839Q576 839 487 858L427 165Q425 133 425 123Q425 95 432.0 80.5Q439 66 456 62L450 0Q437 -1 410 -1Q357 -1 313 7Q269 -1 215 -1Q188 -1 175 0L180 62Q203 67 212.5 90.0Q222 113 227 165L293 923Q266 935 244.5 945.5Q223 956 206 964Q127 1002 77.5 1021.5Q28 1041 -26 1047Q-48 1049 -56 1049Q-110 1049 -149.0 1028.0Q-188 1007 -204 973Q-216 948 -216 921Q-216 889 -198.5 861.5Q-181 834 -153.0 819.0Q-125 804 -94 807Q-117 819 -129.0 840.5Q-141 862 -141 888Q-141 914 -127.5 937.5Q-114 961 -88 975Q-59 990 -28 990Q8 990 37.0 970.5Q66 951 75 918Q79 905 79 888Q79 844 47.0 810.5Q15 777 -41 766Q-59 763 -79 763Q-131 763 -180.0 786.5Q-229 810 -259.5 852.0Q-290 894 -290 947Q-290 983 -276 1018Q-253 1079 -186.0 1118.0Q-119 1157 -31 1154Q50 1151 123.5 1130.5Q197 1110 312 1069Q430 1026 511.0 1004.5Q592 983 679 983Q729 983 777.5 1000.0Q826 1017 862.0 1050.5Q898 1084 911 1131Q915 1146 915 1165Q915 1209 887.5 1240.5Q860 1272 812 1272Q800 1272 793 1271Q817 1263 830.0 1240.0Q843 1217 843 1188Q843 1156 828.5 1127.5Q814 1099 787 1085Q762 1071 729 1071Q692 1071 662.5 1090.5Q633 1110 624 1144Q619 1160 619 1181Q619 1221 644.0 1252.0Q669 1283 713.5 1299.5Q758 1316 813 1314Q899 1310 957.0 1280.5Q1015 1251 1042.0 1205.5Q1069 1160 1066 1109Z" transform="translate(5661, 0)"/>
  </g>
</svg>