<?xml version="1.0" encoding="UTF-8"?>
<svg xmlns="http://www.w3.org/2000/svg"
     viewBox="-8 -48 5022 930"
     width="5022" height="930">
  <g transform="scale(1,-1) translate(0, -834)" fill="#38A88A">
    <!-- R -->
    <path d="M22 0V10L43 17Q63 24 69.0 35.5Q75 47 75 68V591Q75 611 69.5 622.5Q64 634 45 641L22 650V660H308Q426 660 489.0 615.5Q552 571 552 492Q552 448 519.0 404.0Q486 360 415 336L554 60Q563 43 574.5 32.5Q586 22 605 14L618 9V0H439L291 315H223V68Q223 49 229.0 37.0Q235 25 254 19L278 10V0ZM223 335H271Q343 335 375.0 373.5Q407 412 407 488Q407 565 377.0 602.5Q347 640 276 640H223Z" transform="translate(0, 0)" fill-rule="evenodd"/>
    <!-- A1 (no dots) -->
    <path d="M8 0V10L33 19Q53 27 64.0 38.5Q75 50 82 71L288 662H373L576 67Q584 45 594.0 33.5Q604 22 625 14L637 10V0H383V10L398 15Q419 23 423.5 37.5Q428 52 422 72L375 216H153L105 75Q98 53 100.5 40.0Q103 27 124 19L146 10V0ZM160 236H369L268 547Z" transform="translate(638, 0)" fill-rule="evenodd"/>
    <!-- D -->
    <path d="M22 0V10L43 18Q75 31 75 69V591Q75 631 43 642L22 650V660H286Q392 660 468.5 620.5Q545 581 586.5 507.5Q628 434 628 331Q628 226 583.0 152.0Q538 78 457.5 39.0Q377 0 268 0ZM225 20H268Q340 20 384.0 48.5Q428 77 448.5 144.5Q469 212 469 330Q469 448 448.5 515.5Q428 583 385.0 611.5Q342 640 272 640H225Z" transform="translate(1298, 0)" fill-rule="evenodd"/>
    <!-- E -->
    <path d="M22 0V10L45 19Q62 26 68.5 37.5Q75 49 75 69V591Q75 611 69.5 622.5Q64 634 45 641L22 650V660H501L507 506H497L454 600Q445 618 435.0 629.0Q425 640 405 640H225V351H332Q352 351 362.5 361.5Q373 372 381 390L401 430H411V250H401L381 292Q372 310 362.0 320.5Q352 331 332 331H225V20H427Q447 20 458.0 30.5Q469 41 476 60L517 154H527L521 0Z" transform="translate(1956, 0)" fill-rule="evenodd"/>
    <!-- G -->
    <path d="M364 -18Q262 -18 184.5 24.5Q107 67 63.5 145.5Q20 224 20 331Q20 435 63.0 513.0Q106 591 187.5 634.5Q269 678 385 678Q438 678 483.5 666.0Q529 654 570 631L574 491H564L508 595Q495 620 484.0 631.0Q473 642 456 648Q440 653 426.5 655.5Q413 658 391 658Q329 658 281.5 625.0Q234 592 208.0 520.0Q182 448 182 331Q182 215 206.5 142.0Q231 69 276.0 35.5Q321 2 380 2Q389 2 397.5 3.5Q406 5 414 7Q433 10 439.0 23.0Q445 36 445 54V252Q445 291 405 300L359 312V322H641V312L627 308Q589 296 589 258V41Q537 12 483.5 -3.0Q430 -18 364 -18Z" transform="translate(2521, 0)" fill-rule="evenodd"/>
    <!-- A2 (no dots) -->
    <path d="M8 0V10L33 19Q53 27 64.0 38.5Q75 50 82 71L288 662H373L576 67Q584 45 594.0 33.5Q604 22 625 14L637 10V0H383V10L398 15Q419 23 423.5 37.5Q428 52 422 72L375 216H153L105 75Q98 53 100.5 40.0Q103 27 124 19L146 10V0ZM160 236H369L268 547Z" transform="translate(3187, 0)" fill-rule="evenodd"/>
    <!-- S -->
    <path d="M237 -18Q182 -18 125.0 -4.5Q68 9 30 31L35 167H45L76 102Q90 74 106.0 52.5Q122 31 150 19Q170 9 188.5 5.5Q207 2 230 2Q291 2 326.5 35.0Q362 68 362 120Q362 169 338.0 196.5Q314 224 261 250L220 268Q134 306 85.5 355.5Q37 405 37 487Q37 546 67.5 589.0Q98 632 152.5 655.0Q207 678 280 678Q333 678 380.5 664.0Q428 650 463 626L457 506H447L406 581Q389 616 372.0 630.5Q355 645 333 651Q320 655 309.0 656.5Q298 658 281 658Q230 658 195.0 628.5Q160 599 160 549Q160 498 187.0 467.5Q214 437 266 413L312 393Q408 351 450.0 303.5Q492 256 492 181Q492 93 425.5 37.5Q359 -18 237 -18Z" transform="translate(3847, 0)" fill-rule="evenodd"/>
    <!-- T -->
    <path d="M156 0V10L197 20Q238 29 238 70V640H153Q116 640 100.0 620.5Q84 601 66 567L30 497H20L25 660H602L606 497H596L560 567Q543 601 527.0 620.5Q511 640 474 640H389V70Q389 29 430 20L471 10V0Z" transform="translate(4378, 0)" fill-rule="evenodd"/>
  </g>
</svg>
